<?xml version="1.0" encoding="UTF-8"?>
<!DOCTYPE svg PUBLIC "-//W3C//DTD SVG 1.1//EN" "http://www.w3.org/Graphics/SVG/1.1/DTD/svg11.dtd">
<!-- Creator: CorelDRAW 2017 -->
<svg xmlns="http://www.w3.org/2000/svg" xml:space="preserve" width="200mm" height="60mm" version="1.1" style="shape-rendering:geometricPrecision; 
text-rendering:geometricPrecision; image-rendering:optimizeQuality; fill-rule:evenodd; clip-rule:evenodd"
viewBox="0 0 20000 6000"
 xmlns:xlink="http://www.w3.org/1999/xlink">
 <defs>
  <style type="text/css">
   <![CDATA[
    .fil5 {fill:#ffffff;fill-rule:nonzero}
    .fil0 {fill:#FECC00;fill-rule:nonzero}
    .fil2 {fill:#E31E24;fill-rule:nonzero}
    .fil3 {fill:#D0AAD0;fill-rule:nonzero}
    .fil1 {fill:#B0CB1F;fill-rule:nonzero}
    .fil4 {fill:#7690C9;fill-rule:nonzero}
   ]]>
  </style>
 </defs>
 <g id="Warstwa_x0020_1">
  <metadata id="CorelCorpID_0Corel-Layer"/>
  <g id="_1864083725616">
   <polygon class="fil0" points="1000,4013 2172,4013 2172,5185 1000,5185 "/>
   <polygon class="fil1" points="2465,4013 3637,4013 3637,5185 2465,5185 "/>
   <polygon class="fil2" points="3930,4013 5102,4013 5102,5185 3930,5185 "/>
   <polygon class="fil3" points="5395,4013 6567,4013 6567,5185 5395,5185 "/>
   <polygon class="fil4" points="6860,4013 8032,4013 8032,5185 6860,5185 "/>
   <path class="fil5" d="M17413 1874l239 -975 201 975 -441 0zm847 -1312l-752 0 -323 1312 -315 0 0 177 273 0 -243 992 232 0 239 -992 520 0 205 992 703 0 -216 -992 296 0 0 -177 -334 0 -285 -1312z"/>
   <polygon class="fil5" points="15207,3044 15940,3044 16441,563 16210,563 15796,2644 15340,563 14649,563 "/>
   <path class="fil5" d="M13005 2466l0 -1329c0,-326 84,-443 247,-443 163,0 247,117 247,443l0 1329c0,330 -84,443 -247,443 -163,0 -247,-113 -247,-443zm247 620c646,0 968,-337 968,-886l0 -798c0,-549 -323,-886 -968,-886 -646,0 -968,337 -968,886l0 798c0,549 323,886 968,886z"/>
   <path class="fil5" d="M10442 1768l0 -1028 201 0c152,0 247,113 247,425l0 177c0,308 -95,425 -247,425l-201 0zm-684 1276l684 0 0 -1099 49 0c304,0 330,124 346,390l15 280c19,273 118,471 509,471 311,0 441,-170 494,-305l-125 -96c-38,64 -68,110 -122,110 -57,0 -72,-50 -76,-152l-15 -397c-8,-199 -129,-326 -273,-397 243,-106 368,-294 368,-514l0 -152c0,-354 -304,-620 -911,-620l-942 0 0 2481z"/>
   <path class="fil5" d="M8115 2466l0 -1329c0,-326 84,-443 247,-443 163,0 247,117 247,443l0 1329c0,330 -84,443 -247,443 -163,0 -247,-113 -247,-443zm247 620c646,0 968,-337 968,-886l0 -798c0,-549 -323,-886 -968,-886 -646,0 -968,337 -968,886l0 798c0,549 323,886 968,886z"/>
   <polygon class="fil5" points="5624,563 5624,3044 6965,3044 6965,2867 6308,2867 6308,563 "/>
   <path class="fil5" d="M3981 2466l0 -1329c0,-326 84,-443 247,-443 163,0 247,117 247,443l0 1329c0,330 -84,443 -247,443 -163,0 -247,-113 -247,-443zm247 620c646,0 968,-337 968,-886l0 -798c0,-549 -323,-886 -968,-886 -646,0 -968,337 -968,886l0 798c0,549 323,886 968,886z"/>
   <path class="fil5" d="M1000 1403l0 798c0,549 292,886 946,886 422,0 809,-195 885,-833l-646 -124c-19,603 -61,780 -247,780 -148,0 -217,-113 -217,-443l0 -1329c0,-326 68,-443 217,-443 186,0 228,177 247,744l627 -195c-76,-532 -444,-727 -866,-727 -653,0 -946,337 -946,886z"/>
   <path class="fil5" d="M18341 4940l0 -113c0,-88 42,-137 110,-145l71 -9 2 325c-31,34 -65,54 -104,54 -42,0 -79,-32 -79,-113zm181 -506l0 146 -71 9c-303,39 -438,107 -438,317 0,188 118,272 322,272 114,0 185,-37 235,-90 48,62 113,90 204,90 110,0 177,-52 226,-126l-60 -52c-15,22 -29,34 -48,34 -21,0 -31,-15 -31,-41l-2 -483c0,-214 -127,-333 -396,-333 -250,0 -395,127 -422,305l305 64c-21,-170 -4,-275 87,-275 62,0 89,52 89,164z"/>
   <path class="fil5" d="M17508 3970c0,96 79,174 179,174 98,0 177,-79 177,-174 0,-96 -79,-172 -177,-172 -100,0 -179,77 -179,172z"/>
   <path class="fil5" d="M17517 5000c93,116 129,197 129,287 0,52 -17,84 -54,84 -60,0 -121,-131 -137,-245l-83 287c62,45 131,71 216,71 206,0 266,-169 266,-328l0 -955 -337 0 0 800z"/>
   <path class="fil5" d="M16964 5178c239,0 388,-111 424,-337l-318 -56c-10,230 -46,300 -112,300 -64,0 -94,-47 -94,-141l0 -534c0,-94 31,-140 94,-140 66,0 102,62 112,287l309 -84c-37,-189 -175,-296 -415,-296 -318,0 -457,174 -457,502 0,326 139,500 457,500z"/>
   <path class="fil5" d="M15790 4940l0 -113c0,-88 42,-137 110,-145l71 -9 2 325c-31,34 -65,54 -104,54 -42,0 -79,-32 -79,-113zm181 -506l0 146 -71 9c-303,39 -438,107 -438,317 0,188 118,272 322,272 114,0 185,-37 235,-90 48,62 113,90 204,90 110,0 177,-52 226,-126l-60 -52c-15,22 -29,34 -48,34 -21,0 -31,-15 -31,-41l-2 -483c0,-214 -127,-333 -396,-333 -250,0 -395,127 -422,305l305 64c-21,-170 -4,-275 87,-275 62,0 89,52 89,164z"/>
   <path class="fil5" d="M14802 5155l337 0 0 -643c29,-43 71,-56 112,-56 58,0 108,51 145,107l0 -388c-141,0 -237,58 -283,219l-42 -195 -268 0 0 955z"/>
   <path class="fil5" d="M14596 4200l-337 0 0 759c-25,37 -54,60 -93,60 -50,0 -75,-45 -75,-122l0 -697 -343 0 0 678c0,197 98,300 276,300 127,0 212,-51 272,-122l33 99 268 0 0 -955z"/>
   <path class="fil5" d="M12997 4940l0 -113c0,-88 42,-137 110,-145l71 -9 2 325c-31,34 -65,54 -104,54 -42,0 -79,-32 -79,-113zm181 -506l0 146 -71 9c-303,39 -438,107 -438,317 0,188 118,272 322,272 114,0 185,-37 235,-90 48,62 113,90 204,90 110,0 177,-52 226,-126l-60 -52c-15,22 -29,34 -48,34 -21,0 -31,-15 -31,-41l-2 -483c0,-214 -127,-333 -396,-333 -250,0 -395,127 -422,305l305 64c-21,-170 -4,-275 87,-275 62,0 89,52 89,164z"/>
   <path class="fil5" d="M12072 4048l0 152 -100 0 0 94 100 0 0 611c0,148 94,274 285,274 127,0 202,-62 251,-148l-60 -52c-19,26 -39,49 -71,49 -46,0 -68,-39 -68,-90l0 -643 183 0 0 -94 -183 0 0 -253 -337 101z"/>
   <path class="fil5" d="M11894 4884c0,-347 -484,-274 -484,-508 0,-71 25,-107 79,-107 58,0 94,49 108,217l280 -81c-37,-107 -129,-230 -376,-230 -285,0 -386,148 -386,290 0,347 480,287 480,517 0,60 -29,101 -93,101 -66,0 -108,-62 -123,-240l-289 52c33,176 185,281 409,281 270,0 395,-139 395,-294z"/>
   <path class="fil5" d="M10444 4584l0 -174c0,-94 42,-140 106,-140 62,0 106,47 106,140l0 174 -212 0zm106 594c253,0 395,-111 434,-309l-314 -56c-8,217 -54,272 -120,272 -64,0 -106,-47 -106,-141l0 -266 544 0c0,-328 -135,-502 -438,-502 -318,0 -463,174 -463,502 0,326 145,500 463,500z"/>
   <path class="fil5" d="M9326 4481l0 -543 102 0c77,0 125,60 125,225l0 94c0,163 -48,225 -125,225l-102 0zm-347 674l347 0 0 -581 25 0c154,0 168,66 175,206l8 148c10,144 60,249 258,249 158,0 224,-90 251,-161l-64 -51c-19,34 -35,58 -62,58 -29,0 -37,-26 -39,-81l-8 -210c-4,-105 -66,-172 -139,-210 123,-56 187,-155 187,-272l0 -81c0,-187 -154,-328 -463,-328l-478 0 0 1311z"/>
  </g>
 </g>
</svg>
